<svg width="20" height="13" viewBox="0 0 20 13" fill="none" xmlns="http://www.w3.org/2000/svg">
<path d="M7.74561 6.21729C9.17334 6.61572 9.87061 7.71143 9.87061 9.17236C9.87061 11.563 7.87842 12.5923 5.72021 12.5923H0.0424805V0.838379H5.5874C7.57959 0.838379 9.33936 1.40283 9.33936 3.76025C9.33936 4.92236 8.7749 5.68604 7.74561 6.21729ZM2.59912 2.83057V5.58643H5.22217C6.15186 5.58643 6.81592 5.18799 6.81592 4.19189C6.81592 3.09619 5.98584 2.83057 5.05615 2.83057H2.59912ZM5.38818 10.6001C6.41748 10.6001 7.28076 10.2349 7.28076 9.03955C7.28076 7.84424 6.5835 7.34619 5.42139 7.34619H2.59912V10.6001H5.38818ZM17.2749 2.59814H12.5269V1.43604H17.2749V2.59814ZM19.1675 8.4751C19.1675 8.60791 19.1343 8.77393 19.1343 8.90674H12.9917C12.9917 10.2681 13.7222 11.0649 15.0835 11.0649C15.7808 11.0649 16.7104 10.6997 16.9429 9.96924H19.0015C18.3706 11.895 17.0425 12.8247 15.0171 12.8247C12.3276 12.8247 10.6343 10.9985 10.6343 8.34229C10.6343 5.78564 12.394 3.82666 15.0171 3.82666C17.6733 3.82666 19.1675 5.95166 19.1675 8.4751ZM12.9917 7.4126H16.8101C16.7104 6.28369 16.1128 5.61963 14.9175 5.61963C13.8218 5.61963 13.0581 6.31689 12.9917 7.4126Z" fill="white"/>
</svg>
