<svg width="17" height="16" viewBox="0 0 17 16" fill="none" xmlns="http://www.w3.org/2000/svg">
<path d="M16.001 11.3125C16.251 11.4375 16.4385 11.7188 16.4385 12.0312C16.4385 12.0625 16.4385 12.125 16.4385 12.1875L15.6885 15.4375C15.5947 15.7812 15.3135 16 14.9697 16C6.93848 16 0.469727 9.53125 0.469727 1.5C0.469727 1.15625 0.688477 0.875 1.03223 0.78125L4.28223 0.03125C4.34473 0.03125 4.40723 0 4.43848 0C4.75098 0 5.03223 0.1875 5.15723 0.46875L6.65723 3.96875C6.68848 4.0625 6.71973 4.15625 6.71973 4.25C6.71973 4.5 6.59473 4.71875 6.43848 4.84375L4.53223 6.40625C5.68848 8.84375 7.62598 10.7812 10.0635 11.9375L11.626 10.0312C11.751 9.875 11.9697 9.75 12.1885 9.75C12.3135 9.75 12.4072 9.78125 12.501 9.8125L16.001 11.3125Z" fill="white"/>
</svg>
