<svg width="15" height="15" viewBox="0 0 15 15" fill="none" xmlns="http://www.w3.org/2000/svg">
<g clip-path="url(#clip0_110_238)">
<path d="M11.8608 9.29199C11.5533 8.97212 11.1822 8.80131 10.7892 8.80131C10.3992 8.80131 10.025 8.96912 9.70483 9.28881L8.70306 10.2861C8.62063 10.2417 8.5382 10.2006 8.45896 10.1594C8.3448 10.1031 8.23701 10.0486 8.145 9.99062C7.20614 9.39549 6.35366 8.61981 5.53497 7.61631C5.13858 7.11606 4.87232 6.69512 4.67892 6.26762C4.93898 6.03024 5.17989 5.78331 5.41442 5.54574C5.50324 5.45724 5.59205 5.36537 5.68087 5.27668C6.34652 4.61181 6.34652 3.75081 5.68087 3.08593L4.81524 2.22174C4.71703 2.12349 4.61545 2.02224 4.52044 1.92174C4.33022 1.72543 4.13044 1.52274 3.92445 1.33281C3.61688 1.02887 3.24847 0.867432 2.86222 0.867432C2.47597 0.867432 2.10212 1.02868 1.78516 1.33299L1.77878 1.33937L0.700774 2.42518C0.294999 2.83037 0.0634752 3.32518 0.0127766 3.89743C-0.0623323 4.82181 0.209374 5.68281 0.418553 6.24643C0.932298 7.62981 1.69953 8.91212 2.84401 10.2861C4.23352 11.9417 5.90357 13.2486 7.81208 14.1706C8.54139 14.5156 9.51462 14.9239 10.602 14.9937C10.6687 14.9969 10.7383 15.0001 10.8018 15.0001C11.5341 15.0001 12.1492 14.7376 12.6313 14.2148C12.6343 14.2086 12.6406 14.2054 12.6438 14.1991C12.8087 13.9996 12.9989 13.8192 13.1987 13.6261C13.335 13.4963 13.4745 13.36 13.6118 13.2177C13.9256 12.8916 14.0904 12.5116 14.0904 12.1223C14.0904 11.7297 13.9226 11.3536 13.6022 11.0363L11.8608 9.29199ZM12.9957 12.6256C12.9925 12.6287 12.9925 12.6256 12.9957 12.6256C12.8722 12.7585 12.7452 12.8789 12.6089 13.0118C12.394 13.212 12.1898 13.4234 11.9972 13.645C11.6768 13.987 11.2996 14.1484 10.805 14.1484C10.7575 14.1484 10.7068 14.1484 10.6591 14.1452C9.7176 14.0851 8.84258 13.7177 8.18613 13.4044C6.39178 12.5369 4.81599 11.3054 3.50666 9.74462C2.4264 8.44356 1.70273 7.24056 1.22466 5.94887C0.929857 5.16137 0.822075 4.54637 0.869581 3.96699C0.901315 3.59668 1.04402 3.28956 1.30709 3.02668L2.38753 1.94743C2.54282 1.80174 2.70768 1.72243 2.86936 1.72243C3.06915 1.72243 3.23082 1.84262 3.33221 1.94406L3.34179 1.95343C3.5352 2.13399 3.71903 2.32074 3.91243 2.52024C4.01064 2.62149 4.11222 2.72274 4.21287 2.82737L5.07925 3.69118C5.41517 4.02681 5.41517 4.33712 5.07925 4.67256C4.98724 4.76443 4.89842 4.85631 4.8066 4.94481C4.54015 5.21706 4.28647 5.46981 4.01064 5.71731C4.00444 5.72368 3.99806 5.72687 3.99486 5.73324C3.72222 6.00549 3.77292 6.27137 3.83 6.45174L3.83958 6.48024C4.0649 7.02399 4.38167 7.53774 4.8635 8.14899L4.86669 8.15199C5.74171 9.22843 6.66442 10.0675 7.68215 10.7101C7.80838 10.7874 7.93856 10.8582 8.07215 10.9221C8.18613 10.9784 8.2941 11.0329 8.38592 11.0909C8.39869 11.0972 8.41127 11.1068 8.42347 11.113C8.52051 11.1637 8.62828 11.1905 8.7378 11.1912C9.00068 11.1912 9.16592 11.0266 9.21981 10.9727L10.304 9.88993C10.4118 9.78268 10.583 9.65368 10.7823 9.65368C10.9789 9.65368 11.1405 9.77706 11.2387 9.88468L11.2451 9.89106L12.9914 11.6348C13.3193 11.9577 13.3193 12.2901 12.9957 12.6256Z" fill="white"/>
<path d="M8.10704 3.56812C8.93774 3.70725 9.69334 4.09987 10.2942 4.70137C10.8911 5.29377 11.2879 6.0575 11.4291 6.88594C11.4458 6.9854 11.4974 7.07569 11.5747 7.14065C11.652 7.20561 11.7498 7.241 11.8508 7.2405C11.8752 7.23996 11.8996 7.23783 11.9237 7.23412C11.9793 7.22486 12.0326 7.20472 12.0804 7.17486C12.1282 7.14501 12.1697 7.10602 12.2024 7.06014C12.2351 7.01427 12.2584 6.96239 12.271 6.9075C12.2836 6.85261 12.2852 6.79577 12.2758 6.74025C12.1021 5.73879 11.6226 4.81545 10.9029 4.09677C10.1832 3.3781 9.25848 2.89926 8.25557 2.72587C8.14379 2.70718 8.02914 2.73328 7.93653 2.79852C7.84393 2.86375 7.78084 2.96283 7.76097 3.07425C7.75075 3.12941 7.75163 3.18606 7.76354 3.24088C7.77546 3.2957 7.79819 3.34761 7.8304 3.39358C7.86261 3.43954 7.90365 3.47865 7.95115 3.50861C7.99864 3.53858 8.05164 3.55881 8.10704 3.56812Z" fill="white"/>
<path d="M14.9936 6.61602C14.7119 4.96358 13.9314 3.45965 12.733 2.26302C11.5346 1.0664 10.0285 0.288084 8.37368 0.00627134C8.31776 -0.0041515 8.26031 -0.00332544 8.20471 0.0087011C8.14912 0.0207276 8.09648 0.0437128 8.04989 0.0763101C8.0033 0.108907 7.96369 0.150461 7.93339 0.198537C7.90308 0.246613 7.88269 0.300245 7.87341 0.35629C7.86412 0.412335 7.86613 0.469666 7.87932 0.524926C7.89251 0.580185 7.91661 0.632261 7.9502 0.678102C7.9838 0.723944 8.02622 0.76263 8.07498 0.791893C8.12374 0.821156 8.17786 0.840408 8.23417 0.848521C9.71231 1.09865 11.059 1.79821 12.1306 2.86602C13.2022 3.93477 13.8996 5.28065 14.1501 6.7559C14.1668 6.85538 14.2184 6.94569 14.2957 7.01065C14.3729 7.07562 14.4708 7.111 14.5719 7.11046C14.5962 7.10989 14.6206 7.10782 14.6447 7.10427C14.7 7.09565 14.753 7.0761 14.8006 7.04676C14.8482 7.01742 14.8895 6.97888 14.922 6.9334C14.9545 6.88792 14.9775 6.83642 14.9898 6.78192C15.0021 6.72742 15.0034 6.67102 14.9936 6.61602Z" fill="white"/>
</g>
<defs>
<clipPath id="clip0_110_238">
<rect width="15" height="15" fill="white"/>
</clipPath>
</defs>
</svg>
