<svg width="345" height="54" viewBox="0 0 345 54" fill="none" xmlns="http://www.w3.org/2000/svg">
<g clip-path="url(#clip0_110_691)">
<path d="M109.04 41.9523V12.0477H133.317C139.698 12.0477 141.912 13.7867 141.912 19.6973V21.5674C141.912 24.479 140.538 26.0431 137.881 26.4783C140.538 26.8261 142.62 28.4339 142.62 32.0431V34.0007C142.62 40.1716 139.874 41.9503 133.317 41.9503L109.04 41.9523ZM135.981 20.524C135.981 18.6102 135.272 17.9583 133.323 17.9583H115.022V24.4353H133.361C135.266 24.4353 135.974 23.6959 135.974 21.6529L135.981 20.524ZM136.69 32.216C136.69 30 136.025 29.217 133.544 29.217H115.022V36.0835H133.317C135.932 36.0835 136.683 35.3024 136.683 33.3011L136.69 32.216Z" fill="white"/>
<path d="M173.454 41.9523L162.921 32.1722H153.307V41.9523H147.271V12.0477H172.17C178.637 12.0477 180.896 14.526 180.896 21.3051V23.1256C180.896 30.4273 178.105 32.0788 170.565 32.0788L181.862 41.9463L173.454 41.9523ZM174.961 22.3047C174.961 19.3932 174.607 18.002 171.991 18.002H153.297V27.2614H171.983C174.11 27.2614 174.953 26.3471 174.953 23.7397L174.961 22.3047Z" fill="white"/>
<path d="M185.681 41.9523V12.0477H191.662V41.9523H185.681Z" fill="white"/>
<path d="M206.546 41.9523C199.28 41.9523 197.066 39.6926 197.066 32.2597V21.7343C197.066 14.2577 199.28 12.0417 206.546 12.0417H223.646C228.166 12.0417 230.248 14.7804 230.957 16.4319L227.147 20.2557C226.616 19.0831 225.552 17.9523 223.247 17.9523H206.591C203.933 17.9523 203.003 18.9082 203.003 21.7284V32.2915C203.003 34.8115 203.534 36.0675 206.591 36.0675H223.47C225.818 36.0675 226.792 34.895 227.319 33.7641L231.129 37.5402C230.463 39.1918 228.338 41.9304 223.819 41.9304L206.546 41.9523Z" fill="white"/>
<path d="M262.854 41.9523L250.848 30.2166L241.679 38.3014V41.9523H235.652V12.0477H241.679V30.9122L262.854 12.0477H271.493L254.969 26.5658L271.404 41.9523H262.854Z" fill="white"/>
<path d="M273.841 41.9523V36.6062L295.416 17.6105H274.106V12.0458H304.851V17.213L283.321 36.3796H304.895V41.9444L273.841 41.9523Z" fill="white"/>
<path d="M318.894 41.9523C311.497 41.9523 309.374 39.6051 309.374 32.2597V21.7343C309.374 14.3809 311.501 12.0417 318.894 12.0417H334.976C342.241 12.0417 344.496 14.3889 344.496 21.7343V32.2676C344.496 39.621 342.237 41.9602 334.976 41.9602L318.894 41.9523ZM338.52 21.784C338.52 18.8288 337.589 17.9583 334.931 17.9583H318.894C316.237 17.9583 315.307 18.8288 315.307 21.784V32.3034C315.307 35.2587 316.148 36.0795 318.894 36.0795H334.931C337.678 36.0795 338.52 35.2547 338.52 32.3034V21.784Z" fill="white"/>
<path d="M1.12207 53.8052L55.4913 0.194824L109.04 53.8052H84.7855L47.0425 16.2372L9.16169 53.8052H1.12207Z" fill="white"/>
<path d="M12.2949 53.8052L47.3135 19.7131L51.2655 23.8569L19.109 53.8052H12.2949Z" fill="white"/>
<path d="M25.3846 16.2411V27.8377L22.7776 30.4054V17.6721L13.393 12.0218V39.6588L10.7881 42.2285V7.45081L25.3846 16.2411Z" fill="white"/>
<path d="M9.62939 21.9251L3.10695 25.5243V49.8085L0.5 52.3762V24.0318L9.62939 18.9917V21.9251Z" fill="white"/>
<path d="M50.9478 35.6323H45.5435V40.9347H50.9478V35.6323Z" fill="white"/>
<path d="M58.1465 35.6323H52.7422V40.9347H58.1465V35.6323Z" fill="white"/>
<path d="M50.9478 42.6379H45.5435V47.9404H50.9478V42.6379Z" fill="white"/>
<path d="M58.1465 42.6379H52.7422V47.9404H58.1465V42.6379Z" fill="white"/>
</g>
<defs>
<clipPath id="clip0_110_691">
<rect width="344" height="53.6104" fill="white" transform="translate(0.5 0.194824)"/>
</clipPath>
</defs>
</svg>
