<svg width="156" height="308" viewBox="0 0 156 308" fill="none" xmlns="http://www.w3.org/2000/svg">
<mask id="mask0_118_2034" style="mask-type:alpha" maskUnits="userSpaceOnUse" x="0" y="0" width="156" height="308">
<rect width="156" height="308" fill="#00AEEF"/>
</mask>
<g mask="url(#mask0_118_2034)">
<path d="M44.9973 279.578C73.4215 273.258 98.1707 255.904 113.8 231.336C129.43 206.768 134.66 176.997 128.339 148.573C122.019 120.149 104.666 95.3998 80.0976 79.7701C55.5295 64.1405 25.7587 58.9106 -2.66551 65.2311" stroke="#00AEEF"/>
<path d="M-0.523427 76.5166C25.0212 70.8364 51.776 75.5365 73.8552 89.5827C95.9345 103.629 111.53 125.871 117.21 151.416C122.89 176.96 118.19 203.715 104.144 225.794C90.0973 247.873 67.8554 263.469 42.3108 269.149L49.7094 302.421" stroke="#00AEEF"/>
<path d="M47.4895 290.786C63.0355 287.329 77.7484 280.844 90.7882 271.701C103.828 262.558 114.939 250.936 123.488 237.499C132.036 224.062 137.854 209.073 140.609 193.387C143.365 177.702 143.004 161.627 139.547 146.081C136.09 130.535 129.605 115.822 120.462 102.782C111.319 89.7424 99.6975 78.6312 86.2604 70.0828C72.8233 61.5345 57.8341 55.7165 42.1486 52.961C26.463 50.2055 10.3883 50.5665 -5.15771 54.0234" stroke="#00AEEF"/>
<path d="M49.9821 301.993C84.3512 294.351 114.277 273.368 133.175 243.662C152.074 213.955 158.398 177.958 150.755 143.589C143.113 109.22 122.13 79.2942 92.4237 60.3956C62.7171 41.4969 26.7197 35.1733 -7.64939 42.8157" stroke="#00AEEF"/>
</g>
</svg>
