<svg width="84" height="65" viewBox="0 0 84 65" fill="none" xmlns="http://www.w3.org/2000/svg">
<path d="M18.8 39.5228C14.0663 37.246 9.65663 35.9231 6.27288 33.3133C-0.0266687 28.4446 -1.54755 19.6253 1.55723 11.5799C4.31103 4.45238 11.0605 0.0336928 19.1959 0.0336928C23.0497 0.0321993 26.8023 1.26771 29.9014 3.55842C33.0005 5.84914 35.2825 9.0741 36.4117 12.7588C40.2004 24.3679 37.9956 35.3111 31.2551 45.2014C25.9635 52.9499 18.854 58.9434 10.7275 63.6681C9.3288 64.4237 7.77205 64.8398 6.18288 64.883C12.6984 57.1166 18.287 49.1702 18.8 39.5228Z" fill="#00AEEF"/>
<path d="M64.3374 38.407C62.3936 38.056 60.7377 37.885 59.2168 37.453C54.879 36.3368 51.1061 33.6584 48.6215 29.9316C46.137 26.2048 45.1158 21.6919 45.7538 17.2585C47.1487 6.67527 54.0062 0.294733 64.2744 0.00675421C73.4808 -0.245228 81.3732 6.57628 83.0651 16.6286C84.613 25.9429 83.2631 34.9602 78.1874 43.0056C72.4941 51.8823 64.6172 59.1487 55.3111 64.1091C54.1968 64.6671 52.9552 64.9216 51.7113 64.8471C58.1999 57.0806 64.1034 49.1702 64.3374 38.407Z" fill="#00AEEF"/>
</svg>
