<svg width="200" height="254" viewBox="0 0 200 254" fill="none" xmlns="http://www.w3.org/2000/svg">
<rect width="11" height="11" fill="#00AEEF"/>
<rect x="27" width="11" height="11" fill="#00AEEF"/>
<rect x="54" width="11" height="11" fill="#00AEEF"/>
<rect x="81" width="11" height="11" fill="#00AEEF"/>
<rect x="108" width="11" height="11" fill="#00AEEF"/>
<rect x="135" width="11" height="11" fill="#00AEEF"/>
<rect x="162" width="11" height="11" fill="#00AEEF"/>
<rect x="189" width="11" height="11" fill="#00AEEF"/>
<rect x="27" y="36" width="11" height="11" fill="#00AEEF"/>
<rect x="54" y="36" width="11" height="11" fill="#00AEEF"/>
<rect x="81" y="36" width="11" height="11" fill="#00AEEF"/>
<rect x="81" y="72" width="11" height="11" fill="#00AEEF"/>
<rect x="54" y="72" width="11" height="11" fill="#00AEEF"/>
<rect x="108" y="36" width="11" height="11" fill="#00AEEF"/>
<rect x="108" y="72" width="11" height="11" fill="#00AEEF"/>
<rect x="108" y="108" width="11" height="11" fill="#00AEEF"/>
<rect x="81" y="108" width="11" height="11" fill="#00AEEF"/>
<rect x="135" y="36" width="11" height="11" fill="#00AEEF"/>
<rect x="135" y="72" width="11" height="11" fill="#00AEEF"/>
<rect x="135" y="108" width="11" height="11" fill="#00AEEF"/>
<rect x="135" y="144" width="11" height="11" fill="#00AEEF"/>
<rect x="135" y="144" width="11" height="11" fill="#00AEEF"/>
<rect x="108" y="144" width="11" height="11" fill="#00AEEF"/>
<rect x="162" y="36" width="11" height="11" fill="#00AEEF"/>
<rect x="162" y="72" width="11" height="11" fill="#00AEEF"/>
<rect x="162" y="108" width="11" height="11" fill="#00AEEF"/>
<rect x="162" y="144" width="11" height="11" fill="#00AEEF"/>
<rect x="162" y="144" width="11" height="11" fill="#00AEEF"/>
<rect x="162" y="180" width="11" height="11" fill="#00AEEF"/>
<rect x="135" y="180" width="11" height="11" fill="#00AEEF"/>
<rect x="189" y="36" width="11" height="11" fill="#00AEEF"/>
<rect x="189" y="72" width="11" height="11" fill="#00AEEF"/>
<rect x="189" y="108" width="11" height="11" fill="#00AEEF"/>
<rect x="189" y="144" width="11" height="11" fill="#00AEEF"/>
<rect x="189" y="144" width="11" height="11" fill="#00AEEF"/>
<rect x="189" y="180" width="11" height="11" fill="#00AEEF"/>
<rect x="189" y="216" width="11" height="11" fill="#00AEEF"/>
<rect x="189" y="243" width="11" height="11" fill="#00AEEF"/>
<rect x="162" y="216" width="11" height="11" fill="#00AEEF"/>
</svg>
