<svg width="71" height="71" viewBox="0 0 71 71" fill="none" xmlns="http://www.w3.org/2000/svg">
<g clip-path="url(#clip0_113_1606)">
<path d="M35.6615 70.615C35.2314 70.615 34.7903 70.615 34.3547 70.615C21.2858 70.1086 11.2773 64.1622 4.62304 52.9503C1.35663 47.5269 -0.241715 41.2623 0.0271595 34.937C0.506351 22.5162 6.01706 12.7908 16.3959 6.03855C21.1642 2.96512 26.6317 1.14634 32.2909 0.751111C32.4347 0.736985 32.5769 0.709646 32.7156 0.669434H32.8354H37.1917L38.3625 0.821903C39.2392 0.93081 40.1485 1.04516 41.0307 1.21397C42.2613 1.45356 43.5954 1.7585 45.229 2.21047C45.4543 2.25473 45.6678 2.34598 45.8554 2.47827C46.0431 2.61057 46.2007 2.78093 46.3181 2.97826C46.4068 3.14409 46.4599 3.32663 46.4739 3.51417C46.488 3.70171 46.4628 3.89012 46.3998 4.06733C46.3128 4.3504 46.1338 4.5963 45.8911 4.76599C45.6484 4.93567 45.356 5.01942 45.0602 5.00393C44.8442 5.00217 44.6297 4.96916 44.4231 4.90592C41.4247 3.97885 38.3045 3.50532 35.166 3.50101C34.6215 3.50101 34.0116 3.50101 33.4398 3.55002C25.1797 3.89244 17.3814 7.45346 11.7129 13.4715C6.37645 19.0312 3.43051 25.5275 2.95676 32.7916C2.06917 46.3069 7.49819 56.6858 19.0913 63.6286C23.7299 66.4569 29.058 67.9528 34.4908 67.9522C36.3165 67.9477 38.1384 67.7856 39.9362 67.4676C51.9432 65.382 60.3671 58.6025 64.9848 47.3198C67.7074 40.671 67.9688 33.6301 65.7961 26.3933C65.7015 26.1318 65.6695 25.8517 65.7026 25.5756C65.7357 25.2995 65.833 25.035 65.9867 24.8032C66.1085 24.6367 66.2673 24.5008 66.4506 24.4063C66.634 24.3117 66.8368 24.2612 67.0431 24.2587H67.103C67.4158 24.2626 67.718 24.3725 67.9603 24.5703C68.2026 24.768 68.3707 25.0421 68.4371 25.3478C69.2043 27.8045 69.692 30.3399 69.891 32.9059C69.891 33.1237 69.9455 33.3307 69.9782 33.5376C69.9782 33.6193 70.0054 33.7009 70.0163 33.7826V37.5944C69.9618 38.0191 69.9128 38.4438 69.8638 38.874C69.7549 39.7888 69.6406 40.7309 69.4717 41.6457C67.6258 51.7196 62.3601 59.6154 53.8273 65.1642C48.4368 68.7216 42.12 70.617 35.6615 70.615Z" fill="white"/>
<path d="M35.667 59.8168C23.4585 59.8168 13.1505 51.2894 11.1629 39.5492C10.6073 36.3445 10.7069 33.0604 11.4556 29.8951C12.2043 26.7299 13.5867 23.7492 15.5192 21.1331C17.4352 18.5039 19.8635 16.2897 22.6579 14.6239C25.4523 12.9581 28.555 11.8752 31.779 11.4403C32.8827 11.3057 33.9944 11.2475 35.1061 11.2661H36.4838C36.838 11.2435 37.1891 11.3439 37.4778 11.5503C37.7665 11.7567 37.9751 12.0563 38.0684 12.3987C38.1303 12.5934 38.1453 12.7999 38.1122 13.0015C38.0791 13.2031 37.9988 13.3939 37.8778 13.5586C37.7423 13.733 37.5678 13.8731 37.3682 13.9677C37.1686 14.0622 36.9496 14.1086 36.7289 14.1031H36.571C35.9829 14.0541 35.3947 14.0269 34.8121 14.0269C31.387 14.0516 28.0207 14.9194 25.0105 16.5535C21.2306 18.5756 18.1419 21.6818 16.141 25.473C14.1402 29.2641 13.3187 33.5669 13.7821 37.8285C14.2794 42.584 16.3553 47.0358 19.6785 50.4735C23.0018 53.9112 27.3808 56.1367 32.1167 56.7947C33.1424 56.947 34.178 57.0235 35.2151 57.0234C40.3661 57.0084 45.3397 55.1398 49.2262 51.7592C53.1128 48.3786 55.6526 43.7119 56.3811 38.6126C56.536 37.2335 56.5851 35.8445 56.5282 34.4578V34.1583C56.5282 33.1891 56.991 32.5247 57.8024 32.4594H57.9712C58.3392 32.4571 58.6933 32.5999 58.9568 32.8569C59.0812 32.983 59.1791 33.1328 59.2446 33.2974C59.3101 33.462 59.3418 33.6381 59.338 33.8153C59.338 34.1529 59.338 34.4851 59.338 34.8227C59.4086 36.4828 59.3028 38.1457 59.0221 39.7834C56.8821 50.0261 50.6145 56.5714 40.399 59.2451C39.7926 59.4007 39.1757 59.5117 38.5531 59.5772C37.6981 59.6698 36.8487 59.7406 36.2224 59.7896L35.6779 59.8332L35.667 59.8168Z" fill="white"/>
<path d="M35.0843 36.9246C34.9022 36.9226 34.7223 36.8845 34.555 36.8125C34.3877 36.7406 34.2363 36.6361 34.1096 36.5053C33.8651 36.2632 33.72 35.9385 33.7029 35.5948C33.6858 35.2512 33.7978 34.9136 34.017 34.6484C34.1589 34.4807 34.3098 34.3207 34.469 34.1692L36.5164 32.1218C39.4406 29.1922 42.4682 26.1646 45.4523 23.2023C45.6528 23.0154 45.8102 22.787 45.9137 22.5331C46.0171 22.2793 46.0641 22.0059 46.0513 21.7321C46.0513 20.7682 46.0513 19.7772 46.0513 18.8242C46.0513 18.0456 46.0513 17.2669 46.0513 16.4882C46.0392 16.1922 46.0908 15.8971 46.2025 15.6228C46.3143 15.3485 46.4837 15.1014 46.6993 14.8981C49.9665 11.6309 53.2718 8.36372 56.8113 4.79157C56.962 4.60873 57.1483 4.45845 57.359 4.34986C57.5696 4.24128 57.8001 4.17665 58.0365 4.15991C58.2241 4.16407 58.409 4.20476 58.581 4.27971C59.1855 4.52475 59.4414 4.9985 59.4305 5.85342C59.4305 6.4633 59.4305 7.07862 59.4305 7.69394C59.4305 8.51074 59.4305 9.36567 59.4305 10.1988C59.4146 10.3364 59.4267 10.4759 59.466 10.6088C59.5053 10.7416 59.571 10.8652 59.6592 10.972C59.7614 11.0595 59.88 11.1258 60.0081 11.1669C60.1362 11.208 60.2712 11.2233 60.4052 11.2116H60.4651C60.9715 11.2116 61.4834 11.2116 61.9952 11.2116H64.8541C65.66 11.2116 66.1283 11.4785 66.3679 12.0774C66.4911 12.3793 66.5109 12.7134 66.4242 13.0276C66.3375 13.3419 66.1492 13.6186 65.8887 13.8145C62.2131 17.4738 58.8914 20.7955 55.7331 23.9755C55.5439 24.1779 55.3142 24.3382 55.0591 24.4461C54.8039 24.554 54.5289 24.607 54.252 24.6018H51.1481V24.6399L50.5001 24.5963C50.1516 24.5691 49.7922 24.5364 49.4437 24.5364C48.9832 24.5213 48.5243 24.5971 48.0933 24.7597C47.3702 25.1266 46.7449 25.6605 46.2691 26.317C46.0513 26.5675 45.8443 26.8071 45.6265 27.0249L40.4534 32.198L36.4838 36.1622C36.3254 36.3329 36.1543 36.4913 35.9719 36.636C35.716 36.8275 35.4039 36.929 35.0843 36.9246ZM56.0762 9.60526L55.9237 9.70328C55.8576 9.74241 55.7956 9.78801 55.7385 9.83941L49.2477 16.3357C49.1491 16.4129 49.067 16.509 49.0062 16.6184C48.9454 16.7279 48.9072 16.8484 48.8937 16.9728C48.8937 18.1218 48.8937 19.2708 48.8937 20.4361V21.7538H51.4313C52.1718 21.7538 52.7436 21.7538 53.2827 21.7266C53.7012 21.7055 54.0996 21.54 54.4099 21.2583C56.2014 19.4995 58.0038 17.6916 59.7463 15.9437L60.623 15.067C60.715 14.9687 60.7988 14.8631 60.8735 14.7511L61.0151 14.5605L61.4562 13.9888H58.1508C57.9473 14.0057 57.7425 13.9777 57.551 13.9067C57.3595 13.8358 57.1859 13.7236 57.0425 13.5781C56.8992 13.4327 56.7895 13.2575 56.7213 13.065C56.6531 12.8725 56.6281 12.6673 56.6479 12.4641C56.6479 11.9195 56.6479 11.3478 56.6479 10.7488V9.21864L56.0762 9.60526Z" fill="white"/>
<path d="M35.3129 49.3018C33.4732 49.2886 31.6535 48.9188 29.9547 48.2128C25.1628 46.2524 22.3312 42.5877 21.5198 37.3221C21.4545 36.9191 21.4272 36.4944 21.4 36.086C21.4 35.8845 21.3728 35.6885 21.3564 35.4924C21.3785 31.9666 22.7495 28.5829 25.188 26.0361C27.6264 23.4893 30.9473 21.9726 34.4688 21.7974H34.899H35.1822C35.537 21.8175 35.8716 21.9693 36.1203 22.2231C36.3691 22.4769 36.5142 22.8144 36.5272 23.1696C36.5375 23.5142 36.4178 23.85 36.1918 24.1103C35.9658 24.3706 35.6501 24.5363 35.3074 24.5745C34.9644 24.6289 34.5995 24.6616 34.251 24.6997C33.6562 24.7435 33.0649 24.8272 32.4813 24.9502C27.4498 26.1645 23.8177 31.0653 24.2098 36.1023C24.6454 41.6457 28.7022 45.9039 34.0768 46.394C34.4307 46.4267 34.7901 46.443 35.1659 46.443C37.9803 46.4453 40.6864 45.3579 42.7167 43.4087C44.7471 41.4596 45.944 38.8002 46.0566 35.9879C46.1219 34.5123 46.7263 34.2345 47.3144 34.1529H47.5214C47.6996 34.1511 47.8765 34.1855 48.0411 34.2538C48.2058 34.3221 48.355 34.423 48.4797 34.5504C48.6248 34.7093 48.7363 34.8958 48.8074 35.0989C48.8785 35.302 48.9079 35.5173 48.8936 35.732C48.7575 40.1972 46.9714 43.7748 43.5789 46.3722C41.2303 48.2486 38.3189 49.2804 35.3129 49.3018Z" fill="white"/>
</g>
<defs>
<clipPath id="clip0_113_1606">
<rect width="70.0218" height="70" fill="white" transform="translate(0 0.61499)"/>
</clipPath>
</defs>
</svg>
