<svg width="13" height="17" viewBox="0 0 13 17" fill="none" xmlns="http://www.w3.org/2000/svg">
<path d="M5.84473 15.6875C1.28223 9.125 0.469727 8.4375 0.469727 6C0.469727 2.6875 3.12598 0 6.46973 0C9.78223 0 12.4697 2.6875 12.4697 6C12.4697 8.4375 11.626 9.125 7.06348 15.6875C6.78223 16.125 6.12598 16.125 5.84473 15.6875ZM6.46973 8.5C7.84473 8.5 8.96973 7.40625 8.96973 6C8.96973 4.625 7.84473 3.5 6.46973 3.5C5.06348 3.5 3.96973 4.625 3.96973 6C3.96973 7.40625 5.06348 8.5 6.46973 8.5Z" fill="white"/>
</svg>
