<svg width="17" height="11" viewBox="0 0 17 11" fill="none" xmlns="http://www.w3.org/2000/svg">
<path d="M16.9999 9.8084C16.9467 9.95208 16.9112 10.1039 16.8367 10.2374C16.5692 10.7162 16.1328 10.9652 15.5499 10.9987C15.506 11.0011 15.4616 10.9999 15.4173 10.9999C10.7985 10.9999 6.1792 10.9999 1.56038 10.9999C0.820074 10.9999 0.233241 10.6027 0.0553717 9.97698C0.0194431 9.85045 0.00303125 9.71616 0.00258768 9.58513C-7.36941e-05 6.86136 -0.00096082 4.13799 0.001257 1.41462C0.00170056 0.595408 0.65019 0.00150873 1.54397 0.00110055C6.17965 0.000284192 10.8153 0.000284192 15.4506 0.00110055C16.2295 0.00110055 16.7977 0.422749 16.9715 1.12155C16.9777 1.14604 16.9902 1.1689 16.9999 1.19257V9.8084ZM1.73958 0.925625C1.79148 0.976239 1.8243 1.00971 1.85846 1.04155C3.91304 2.93794 5.96762 4.83475 8.02221 6.73074C8.34823 7.03157 8.6534 7.03034 8.98208 6.72706C11.0367 4.83067 13.0912 2.93427 15.1458 1.03787C15.1795 1.00685 15.2106 0.973382 15.2581 0.926033H1.73958V0.925625ZM1.72982 10.0692H15.2705C13.8329 8.75816 12.4193 7.46832 10.9976 6.17194C10.9653 6.20051 10.9213 6.23766 10.8792 6.27644C10.4649 6.65849 10.0528 7.04259 9.63678 7.42301C8.98474 8.01977 8.016 8.01895 7.36485 7.42301C7.11379 7.1932 6.8654 6.96095 6.61523 6.73033C6.40897 6.54012 6.20183 6.35032 6.00488 6.16949C4.58193 7.46791 3.1683 8.75775 1.73027 10.0696L1.72982 10.0692ZM1.00282 9.37165C2.41202 8.08793 3.83719 6.78911 5.25659 5.496C3.83409 4.1984 2.41158 2.9008 1.00282 1.61585V9.37165ZM15.9882 9.40186V1.65055C14.5932 2.91998 13.168 4.21717 11.7344 5.52131C13.1533 6.81564 14.5736 8.1112 15.9882 9.40186Z" fill="white"/>
</svg>
