<svg width="17" height="12" viewBox="0 0 17 12" fill="none" xmlns="http://www.w3.org/2000/svg">
<path d="M14.9697 0C15.7822 0 16.4697 0.6875 16.4697 1.5V10.5C16.4697 11.3438 15.7822 12 14.9697 12H1.96973C1.12598 12 0.469727 11.3438 0.469727 10.5V1.5C0.469727 0.6875 1.12598 0 1.96973 0H14.9697ZM14.9697 1.5H1.96973V2.78125C2.65723 3.375 3.78223 4.25 6.15723 6.125C6.68848 6.53125 7.71973 7.53125 8.46973 7.5C9.18848 7.53125 10.2197 6.53125 10.751 6.125C13.126 4.25 14.251 3.375 14.9697 2.78125V1.5ZM1.96973 10.5H14.9697V4.71875C14.251 5.28125 13.2197 6.09375 11.6885 7.3125C10.9697 7.84375 9.78223 9.03125 8.46973 9C7.12598 9.03125 5.90723 7.84375 5.21973 7.3125C3.68848 6.09375 2.65723 5.28125 1.96973 4.71875V10.5Z" fill="white"/>
</svg>
