<svg width="64" height="54" viewBox="0 0 64 54" fill="none" xmlns="http://www.w3.org/2000/svg">
<g clip-path="url(#clip0_110_456)">
<path d="M63.8037 53.9586C63.5806 53.9718 63.3558 53.998 63.1327 53.998L36.8515 53.998C36.8351 53.8142 36.8121 53.696 36.8138 53.5794C36.8138 44.4287 36.6317 35.2713 36.8892 26.1288C37.1665 16.3345 41.8111 8.86971 50.116 3.7378C54.1174 1.26214 58.5438 0.075202 63.2557 -0.00195765C63.4378 -0.00195767 63.6216 0.0160981 63.8037 0.0259482L63.8037 9.01583C62.926 9.06672 62.0368 9.04866 61.1787 9.18C57.493 9.72553 54.0677 11.403 51.3759 13.9807C48.6841 16.5583 46.8588 19.9089 46.1522 23.5694C45.934 24.6775 45.8848 25.8169 45.7519 26.9923L63.8037 26.9923L63.8037 53.9586Z" fill="#00AEEF"/>
<path d="M0.803643 25.269C0.967706 24.197 1.08091 23.1184 1.27943 22.0546C2.39505 16.0624 5.23333 11.0077 9.74997 6.94122C14.6718 2.50867 20.4797 0.185678 27.1193 0.00345049C27.3194 0.00345047 27.5196 0.00345045 27.7575 0.00345043L27.7575 8.95064C21.592 9.15914 16.6357 11.7005 13.0279 16.7372C10.9361 19.6577 9.69583 23.6848 9.82544 26.9764L27.7607 26.9764L27.7607 53.9641C27.5491 53.9772 27.3703 53.9985 27.1915 53.9985L1.29255 53.9985C1.12849 53.9985 0.964424 53.9723 0.800361 53.9591L0.803643 25.269Z" fill="#00AEEF"/>
</g>
<defs>
<clipPath id="clip0_110_456">
<rect width="63" height="54" fill="white" transform="translate(63.8037 54) rotate(180)"/>
</clipPath>
</defs>
</svg>
