<svg width="18" height="15" viewBox="0 0 18 15" fill="none" xmlns="http://www.w3.org/2000/svg">
<path d="M15.3403 4.36182C15.3403 4.52783 15.3403 4.66064 15.3403 4.82666C15.3403 9.44189 11.854 14.7212 5.4458 14.7212C3.45361 14.7212 1.62744 14.1567 0.100098 13.1606C0.365723 13.1938 0.631348 13.2271 0.930176 13.2271C2.55713 13.2271 4.05127 12.6626 5.24658 11.7329C3.71924 11.6997 2.42432 10.7036 1.99268 9.30908C2.2251 9.34229 2.42432 9.37549 2.65674 9.37549C2.95557 9.37549 3.2876 9.30908 3.55322 9.24268C1.95947 8.91064 0.76416 7.51611 0.76416 5.82275V5.78955C1.229 6.05518 1.79346 6.18799 2.35791 6.22119C1.39502 5.59033 0.797363 4.52783 0.797363 3.33252C0.797363 2.66846 0.963379 2.0708 1.26221 1.57275C2.98877 3.66455 5.57861 5.05908 8.46729 5.2251C8.40088 4.95947 8.36768 4.69385 8.36768 4.42822C8.36768 2.50244 9.92822 0.941895 11.854 0.941895C12.8501 0.941895 13.7466 1.34033 14.4106 2.0376C15.1743 1.87158 15.938 1.57275 16.6021 1.17432C16.3364 2.00439 15.8052 2.66846 15.0747 3.1001C15.772 3.03369 16.4692 2.83447 17.0669 2.56885C16.6021 3.26611 16.0044 3.86377 15.3403 4.36182Z" fill="white"/>
</svg>
