<svg width="71" height="71" viewBox="0 0 71 71" fill="none" xmlns="http://www.w3.org/2000/svg">
<g clip-path="url(#clip0_2_14)">
<path d="M0 40.4534C0.354592 39.8754 0.59926 39.2123 1.06378 38.7514C1.35454 38.4606 1.94317 38.379 2.40768 38.3613C3.76222 38.3152 5.12385 38.34 6.48194 38.3613C8.15207 38.3613 8.96409 39.1946 8.98891 40.8718V41.5314L13.0525 39.8577C14.6872 39.1804 16.2935 38.418 18.1126 38.3329C19.8661 38.1996 21.6203 38.583 23.1584 39.4357C28.3674 42.4391 33.5338 45.4638 38.7321 48.4849C41.4199 50.0416 42.6822 52.3074 42.3347 55.4278C42.3429 55.4978 42.3583 55.5667 42.3808 55.6335L47.1607 54.3676C51.6038 53.1797 56.0433 51.9776 60.4898 50.8217C63.8833 49.9245 67.1455 51.7188 68.0462 54.9527C68.9469 58.1865 67.0924 61.4913 63.6776 62.4275C57.334 64.1685 50.9761 65.8457 44.6219 67.5478C41.2922 68.4378 37.952 69.3207 34.6259 70.2214C32.1195 70.9513 29.4265 70.6646 27.1298 69.4236C23.9066 67.7463 20.6869 66.0585 17.492 64.3281C16.2991 63.6461 14.9682 63.241 13.5976 63.1428C12.227 63.0446 10.8519 63.2558 9.57398 63.7607C9.38809 63.7962 9.22255 63.9008 9.1107 64.0534C8.99884 64.2061 8.94899 64.3954 8.97118 64.5834C8.996 66.4343 8.17689 67.218 6.31883 67.2251H2.99985C1.07086 67.2251 0.595718 66.8705 0.00354938 65.0727L0 40.4534ZM9.01018 61.5481C9.04558 61.551 9.08116 61.551 9.11656 61.5481C9.22649 61.5197 9.33995 61.4949 9.44987 61.4594C10.9395 60.9598 12.5182 60.7817 14.0817 60.937C15.6452 61.0922 17.158 61.5773 18.5203 62.3601C21.5556 64.0054 24.6229 65.5869 27.6653 67.218C29.6971 68.3066 31.7998 68.6896 34.0479 68.0797C43.6857 65.4793 53.3283 62.892 62.9755 60.3176C65.2272 59.7113 66.4541 57.7078 65.908 55.5838C65.3619 53.4598 63.2557 52.318 61.0217 52.9138C54.554 54.6418 48.0898 56.3805 41.6291 58.1298C41.3688 58.1981 41.1329 58.3382 40.9483 58.534C38.6399 61.1474 35.3564 61.7005 32.3388 59.9524C29.7195 58.4418 27.0956 56.9218 24.4668 55.3924C24.1799 55.2448 23.9049 55.0753 23.6442 54.8853C23.532 54.8111 23.4357 54.7152 23.3611 54.6032C23.2864 54.4913 23.2349 54.3656 23.2095 54.2335C23.184 54.1014 23.1852 53.9655 23.213 53.8339C23.2408 53.7023 23.2945 53.5775 23.3712 53.4669C23.4313 53.3473 23.5145 53.2409 23.616 53.1536C23.7175 53.0663 23.8352 53 23.9625 52.9585C24.0897 52.917 24.2239 52.901 24.3573 52.9116C24.4908 52.9222 24.6208 52.9591 24.7399 53.0201C24.9696 53.1236 25.1923 53.2421 25.4065 53.3747C28.1511 54.9739 30.8814 56.598 33.6472 58.1653C34.2145 58.5015 34.8512 58.7037 35.5085 58.7565C36.1659 58.8092 36.8266 58.7111 37.4403 58.4696C38.0539 58.2281 38.6043 57.8496 39.0494 57.363C39.4946 56.8764 39.8226 56.2945 40.0086 55.6618C40.5972 53.6974 39.7852 51.694 37.8811 50.5876C32.8281 47.5913 27.7149 44.673 22.6442 41.6661C20.3359 40.2938 18.0097 40.191 15.5737 41.1945C13.5773 42.0171 11.5845 42.8575 9.57398 43.6766C9.37995 43.7269 9.21123 43.8469 9.10004 44.0137C8.98885 44.1805 8.94298 44.3824 8.97118 44.5808C8.99245 50.0451 8.97118 55.5094 8.97118 60.9701C8.98536 61.1545 9.00309 61.353 9.01018 61.5481ZM6.73725 64.9663V40.613H2.3474V64.9663H6.73725Z" fill="white"/>
<path d="M44.3807 14.1675C49.8415 14.1675 55.2986 14.1675 60.7593 14.1675C61.0443 14.1541 61.3288 14.2027 61.5933 14.3098C61.8577 14.4169 62.0958 14.5801 62.2912 14.788C64.8903 17.4156 67.532 20.0289 70.1489 22.6564C70.9149 23.4223 70.9184 23.9542 70.1489 24.7131L45.48 49.3997C44.7389 50.1408 44.207 50.1444 43.473 49.421L18.5274 24.7095C17.7509 23.94 17.758 23.4472 18.5452 22.66C21.1833 20.0183 23.8286 17.3872 26.4561 14.7348C26.6366 14.5415 26.8569 14.3898 27.1018 14.29C27.3467 14.1902 27.6103 14.1447 27.8745 14.1569C33.373 14.171 38.8751 14.1746 44.3807 14.1675ZM44.2815 45.212H44.4304C46.6856 38.4393 48.9443 31.6666 51.2208 24.8372H37.4733C39.7498 31.6571 42.0192 38.4488 44.2815 45.212ZM47.0473 44.4319L66.6633 24.8088H66.135C62.1706 24.8088 58.2063 24.8088 54.2455 24.8088C54.1427 24.7911 54.0375 24.7939 53.9358 24.8172C53.8342 24.8405 53.7382 24.8838 53.6534 24.9445C53.5686 25.0052 53.4967 25.0821 53.4419 25.1708C53.3871 25.2595 53.3505 25.3583 53.3342 25.4612C51.3012 31.6193 49.2528 37.7727 47.1891 43.9213C47.1217 44.1234 47.0721 44.3397 47.0473 44.4319ZM21.7755 24.8088L41.5227 44.3716C41.548 44.3116 41.561 44.2471 41.561 44.1819C41.561 44.1168 41.548 44.0523 41.5227 43.9922C39.4448 37.7774 37.3716 31.5614 35.3032 25.3442C35.2704 25.1681 35.1692 25.012 35.0217 24.9104C34.8741 24.8087 34.6923 24.7696 34.516 24.8017C30.7148 24.8017 26.9171 24.8017 23.1159 24.8017L21.7755 24.8088ZM66.7768 22.5749L61.309 17.0964C59.4793 18.9226 57.6106 20.7877 55.8376 22.5642L66.7768 22.5749ZM49.8769 22.5749L44.4127 17.0964C42.6042 18.9048 40.7462 20.7594 38.9484 22.5607L49.8769 22.5749ZM30.5658 16.4191L35.9734 21.8302L41.3809 16.4191H30.5658ZM47.2778 16.4191L52.7562 21.9118L58.2417 16.4191H47.2778ZM27.5873 17.0964L22.1265 22.5571H33.0444L27.5873 17.0964Z" fill="white"/>
<path d="M43.2602 5.80977C43.2602 4.51905 43.2602 3.23188 43.2602 1.94117C43.2602 1.09015 43.6503 0.62918 44.324 0.614996C44.9977 0.600813 45.4551 1.09724 45.4587 1.96599C45.4587 4.54742 45.4587 7.12885 45.4587 9.71028C45.4587 10.5684 45.0119 11.0861 44.3275 11.079C43.6432 11.0719 43.2638 10.5719 43.2638 9.68191C43.2602 8.39119 43.2602 7.10048 43.2602 5.80977Z" fill="white"/>
<path d="M57.256 3.67157C58.3197 3.63965 58.88 4.52613 58.4509 5.32042C58.0963 5.9906 57.6637 6.62177 57.2666 7.26713C56.3269 8.79897 55.3943 10.3308 54.4299 11.8556C53.9902 12.5647 53.2952 12.7385 52.7385 12.3272C52.5067 12.1678 52.3475 11.9231 52.2957 11.6467C52.2439 11.3703 52.3036 11.0846 52.4619 10.8521C53.8129 8.62522 55.171 6.40902 56.561 4.21055C56.7554 3.98742 56.9915 3.80434 57.256 3.67157Z" fill="white"/>
<path d="M31.4381 3.67157C31.7089 3.82074 31.9494 4.01917 32.1473 4.25665C33.5231 6.43385 34.8706 8.63232 36.2074 10.8343C36.2923 10.9591 36.3503 11.1003 36.3775 11.2488C36.4048 11.3973 36.4008 11.5498 36.3658 11.6967C36.3307 11.8435 36.2654 11.9814 36.174 12.1016C36.0827 12.2218 35.9672 12.3215 35.8351 12.3945C35.7107 12.4709 35.5719 12.5209 35.4273 12.5413C35.2828 12.5617 35.1356 12.5522 34.9949 12.5133C34.8542 12.4744 34.723 12.4069 34.6095 12.3151C34.496 12.2233 34.4026 12.1091 34.3351 11.9797C32.9593 9.77765 31.587 7.565 30.2573 5.33461C29.7857 4.54742 30.3353 3.6503 31.4381 3.67157Z" fill="white"/>
</g>
<defs>
<clipPath id="clip0_2_14">
<rect width="70.7269" height="70" fill="white" transform="translate(0 0.61499)"/>
</clipPath>
</defs>
</svg>
