<svg width="88" height="68" viewBox="0 0 88 68" fill="none" xmlns="http://www.w3.org/2000/svg">
<g clip-path="url(#clip0_114_1659)">
<path d="M44.6038 56.1284C37.5489 56.0348 30.5862 54.5108 24.1373 51.6486C15.4698 47.8186 7.58379 42.4213 0.875816 35.7282C-0.29168 34.5828 -0.296102 33.9062 0.875816 32.7608C9.27825 24.5707 18.8482 18.2202 30.1074 14.6293C34.8934 13.0624 39.9095 12.3149 44.9443 12.4181C51.3619 12.6514 57.6755 14.1105 63.5447 16.7166C72.3083 20.5412 80.2823 25.9657 87.0582 32.7122C88.3053 33.9372 88.3097 34.5917 87.0582 35.8078C78.5673 44.0422 68.9267 50.428 57.5568 53.9703C53.223 55.3103 48.0356 56.124 44.6038 56.1284ZM25.2959 34.2821C25.305 36.778 25.8131 39.247 26.7901 41.5437C27.7672 43.8405 29.1937 45.9187 30.9855 47.6562C32.7774 49.3937 34.8986 50.7555 37.2244 51.6613C39.5502 52.5672 42.0336 52.9989 44.5287 52.9311C54.6072 52.6171 62.8327 44.25 62.7221 34.176C62.6933 31.696 62.1754 29.2462 61.1982 26.9667C60.221 24.6873 58.8036 22.623 57.0272 20.8923C55.2509 19.1615 53.1505 17.7983 50.8464 16.8807C48.5423 15.963 46.0798 15.509 43.6 15.5447C34.2556 15.7393 25.2694 23.443 25.2959 34.2821ZM59.202 18.4148C67.6044 26.5209 68.4491 41.2252 59.1622 50.1229C68.6613 46.6956 76.8205 41.15 84.2456 34.2511C76.8294 27.3611 68.679 21.8377 59.202 18.4148ZM3.81224 34.1981C8.65027 39.6597 25.0085 49.9725 28.8426 50.0123C20.5552 42.176 19.3965 27.4319 28.8073 18.3882C19.3479 21.8244 11.1975 27.3479 3.81224 34.1981Z" fill="white"/>
<path d="M42.4635 5.1213C42.4635 4.17492 42.4635 3.22854 42.4635 2.28216C42.4635 1.26502 43.1268 0.601675 44.0378 0.614942C44.2467 0.616889 44.453 0.661461 44.644 0.745929C44.8351 0.830397 45.0069 0.952981 45.1489 1.10617C45.2909 1.25936 45.4001 1.43993 45.4699 1.63682C45.5397 1.83371 45.5685 2.04277 45.5547 2.2512C45.5547 4.14396 45.5547 6.03672 45.5547 7.92948C45.566 8.13865 45.535 8.34795 45.4635 8.54485C45.3921 8.74175 45.2816 8.9222 45.1387 9.07539C44.9958 9.22858 44.8235 9.35137 44.6321 9.43638C44.4406 9.5214 44.234 9.5669 44.0245 9.57016C43.1401 9.57016 42.4812 8.88912 42.4635 7.87641C42.4325 6.96099 42.4635 6.04114 42.4635 5.1213Z" fill="white"/>
<path d="M45.5591 63.4697C45.5591 64.3851 45.5591 65.305 45.5591 66.2248C45.537 67.2419 44.8957 67.9053 43.9847 67.8876C43.7753 67.8856 43.5684 67.841 43.3769 67.7563C43.1853 67.6716 43.013 67.5487 42.8706 67.3951C42.7281 67.2415 42.6186 67.0604 42.5486 66.863C42.4786 66.6656 42.4496 66.4559 42.4635 66.2469C42.4458 64.3542 42.4458 62.4614 42.4635 60.5686C42.4527 60.3595 42.4843 60.1503 42.5564 59.9536C42.6284 59.7569 42.7394 59.5768 42.8826 59.424C43.0259 59.2713 43.1985 59.149 43.3902 59.0645C43.5819 58.98 43.7886 58.9351 43.998 58.9324C44.2072 58.9323 44.4142 58.9742 44.6069 59.0557C44.7995 59.1372 44.9738 59.2565 45.1194 59.4067C45.265 59.5568 45.379 59.7347 45.4545 59.9298C45.5301 60.1248 45.5656 60.333 45.5591 60.5421C45.5591 61.515 45.5591 62.4791 45.5591 63.4697Z" fill="white"/>
<path d="M32.6237 11.6532C32.2301 12.0954 31.9117 12.6659 31.4296 12.9401C31.2842 13.0251 31.1234 13.0803 30.9564 13.1026C30.7894 13.1248 30.6197 13.1136 30.4571 13.0695C30.2945 13.0255 30.1423 12.9495 30.0094 12.846C29.8765 12.7426 29.7654 12.6137 29.6828 12.4669C28.5979 10.6803 27.5542 8.87005 26.5518 7.03625C26.3874 6.7101 26.356 6.33292 26.464 5.98404C26.5721 5.63516 26.8112 5.34178 27.1311 5.16561C27.7989 4.7676 28.5994 4.72337 29.0018 5.37788C30.2002 7.25737 31.2704 9.22089 32.3849 11.1534C32.4223 11.2617 32.4432 11.375 32.4468 11.4895L32.6237 11.6532Z" fill="white"/>
<path d="M59.7414 4.91797C61.1477 4.91797 61.9525 6.03682 61.4528 7.01416C60.4799 8.86711 59.4141 10.6714 58.3262 12.458C58.1146 12.7753 57.7859 12.9957 57.4121 13.0711C57.0383 13.1466 56.6498 13.0708 56.3317 12.8605C56.1588 12.7687 56.0058 12.6433 55.8817 12.4919C55.7577 12.3404 55.6649 12.1657 55.609 11.9781C55.553 11.7904 55.5349 11.5935 55.5557 11.3988C55.5766 11.2041 55.6359 11.0155 55.7303 10.8439C56.6988 9.07496 57.6938 7.34141 58.7507 5.63881C59.0072 5.25407 59.5468 5.05948 59.7414 4.91797Z" fill="white"/>
<path d="M32.6013 56.73C32.4535 57.1499 32.2838 57.5617 32.0927 57.9638C31.2082 59.5116 30.3238 61.0535 29.4393 62.5896C28.8644 63.5669 28.0286 63.8544 27.2281 63.39C26.4277 62.9257 26.2066 62.0633 26.755 61.0815C27.6748 59.463 28.605 57.8415 29.5455 56.217C29.6965 55.8821 29.9729 55.6198 30.3153 55.4867C30.6577 55.3535 31.0387 55.3601 31.3763 55.505C31.8495 55.7526 32.1989 56.3275 32.6013 56.73Z" fill="white"/>
<path d="M61.7798 62.2048C61.3818 62.647 61.0546 63.191 60.5681 63.4696C60.2866 63.6336 59.9514 63.6792 59.6363 63.5963C59.3212 63.5133 59.052 63.3087 58.8876 63.0274C57.7703 61.1936 56.6986 59.3303 55.6726 57.4375C55.3232 56.7875 55.7168 55.9826 56.3846 55.6155C56.5529 55.516 56.7393 55.451 56.9329 55.4242C57.1266 55.3975 57.3237 55.4096 57.5126 55.4598C57.7015 55.51 57.8786 55.5974 58.0334 55.7167C58.1883 55.8361 58.3178 55.9851 58.4144 56.1551C59.4493 57.8753 60.431 59.6266 61.426 61.369C61.5156 61.5768 61.5837 61.7931 61.6295 62.0147L61.7798 62.2048Z" fill="white"/>
<path d="M45.9216 34.3794L51.7502 28.5463C51.4053 28.5463 51.0117 28.5729 50.6269 28.5463C50.4255 28.5378 50.2278 28.4896 50.0451 28.4044C49.8624 28.3193 49.6983 28.1989 49.5623 28.0501C49.4263 27.9014 49.321 27.7272 49.2525 27.5376C49.184 27.348 49.1536 27.1468 49.1631 26.9455C49.1643 26.7502 49.204 26.557 49.2801 26.3771C49.3562 26.1972 49.4671 26.0342 49.6064 25.8973C49.7457 25.7605 49.9108 25.6525 50.092 25.5796C50.2732 25.5068 50.467 25.4705 50.6623 25.4728C52.4135 25.4374 54.1648 25.4374 55.916 25.4728C56.1042 25.475 56.2899 25.5151 56.4622 25.5907C56.6344 25.6664 56.7896 25.7761 56.9185 25.9132C57.0473 26.0503 57.1472 26.212 57.212 26.3886C57.2768 26.5652 57.3053 26.7531 57.2958 26.941C57.3179 28.6613 57.3179 30.386 57.2958 32.1107C57.2987 32.3058 57.2628 32.4994 57.19 32.6804C57.1173 32.8614 57.0092 33.0261 56.8721 33.1648C56.735 33.3036 56.5716 33.4136 56.3915 33.4885C56.2114 33.5634 56.0182 33.6017 55.8232 33.6011C55.431 33.621 55.0464 33.4885 54.7497 33.2314C54.4529 32.9742 54.2671 32.6123 54.2311 32.2213C54.2062 31.7602 54.2062 31.2982 54.2311 30.8371C53.926 31.098 53.7358 31.244 53.5722 31.4076L47.4561 37.4927C46.4124 38.5275 45.6872 38.5275 44.6656 37.4927C43.6441 36.4579 42.649 35.454 41.5346 34.3263C40.9951 34.8968 40.5175 35.4186 40.0177 35.9184C37.8154 38.1177 35.6205 40.3127 33.4329 42.5032C33.2119 42.773 32.904 42.9575 32.562 43.0253C32.2199 43.093 31.865 43.0398 31.5578 42.8747C31.2528 42.7432 31.004 42.5084 30.8552 42.2115C30.7063 41.9146 30.667 41.5747 30.7441 41.2517C30.8383 40.8936 31.026 40.567 31.2881 40.3053C34.2805 37.2834 37.2847 34.2747 40.3008 31.2793C41.1852 30.4214 41.9547 30.4347 42.8436 31.3103C43.905 32.3363 44.9487 33.3976 45.9216 34.3794Z" fill="white"/>
</g>
<defs>
<clipPath id="clip0_114_1659">
<rect width="88" height="67.2725" fill="white" transform="translate(0 0.61499)"/>
</clipPath>
</defs>
</svg>
