<svg width="19" height="14" viewBox="0 0 19 14" fill="none" xmlns="http://www.w3.org/2000/svg">
<path d="M18.2612 2.46533C18.6597 3.85986 18.6597 6.84814 18.6597 6.84814C18.6597 6.84814 18.6597 9.80322 18.2612 11.231C18.062 12.0278 17.4312 12.6255 16.6675 12.8247C15.2397 13.1899 9.59521 13.1899 9.59521 13.1899C9.59521 13.1899 3.91748 13.1899 2.48975 12.8247C1.72607 12.6255 1.09521 12.0278 0.895996 11.231C0.497559 9.80322 0.497559 6.84814 0.497559 6.84814C0.497559 6.84814 0.497559 3.85986 0.895996 2.46533C1.09521 1.66846 1.72607 1.0376 2.48975 0.838379C3.91748 0.439941 9.59521 0.439941 9.59521 0.439941C9.59521 0.439941 15.2397 0.439941 16.6675 0.838379C17.4312 1.0376 18.062 1.66846 18.2612 2.46533ZM7.73584 9.5376L12.4507 6.84814L7.73584 4.15869V9.5376Z" fill="white"/>
</svg>
